<svg width="100" height="99" viewBox="0 0 100 99" fill="none" xmlns="http://www.w3.org/2000/svg">
<g filter="url(#filter0_d_20_379)">
<ellipse cx="49.954" cy="40.444" rx="30.9667" ry="30.848" fill="white"/>
</g>
<path d="M46.3585 48.1468H44.4691C43.4619 48.1468 42.6453 47.3302 42.6453 46.3229V40.4467C42.6453 39.9618 42.8384 39.4968 43.182 39.1546L44.3234 38.0175C44.667 37.6752 44.8601 37.2102 44.8601 36.7253V34.1733H46.7058V35.6442L48.7409 33.617C49.4526 32.908 50.6035 32.908 51.3152 33.617L56.8741 39.1546C57.2177 39.4968 57.4108 39.9618 57.4108 40.4467V46.3229C57.4108 47.3302 56.5942 48.1468 55.587 48.1468H53.6976C52.6903 48.1468 51.8737 47.3302 51.8737 46.3229V45.558C51.8737 44.5507 51.0572 43.7341 50.0499 43.7341H50.0062C48.9989 43.7341 48.1824 44.5507 48.1824 45.558V46.3229C48.1824 47.3302 47.3658 48.1468 46.3585 48.1468Z" fill="#60C1F8"/>
<path d="M66.1834 40.4247C66.1834 49.3102 58.9521 56.5163 50.0281 56.5163C41.1042 56.5163 33.8729 49.3102 33.8729 40.4247C33.8729 31.5392 41.1042 24.3332 50.0281 24.3332C58.9521 24.3332 66.1834 31.5392 66.1834 40.4247Z" stroke="#22355D" stroke-width="0.911926"/>
<path d="M50.028 28.4663C52.567 28.4663 54.6313 26.4149 54.6313 23.8771C54.6313 21.3393 52.567 19.288 50.028 19.288C47.489 19.288 45.4247 21.3393 45.4247 23.8771C45.4247 26.4149 47.489 28.4663 50.028 28.4663Z" fill="#F8C301" stroke="white" stroke-width="1.82385"/>
<path d="M60.4264 34.4441C61.6991 36.6401 64.516 37.3901 66.7167 36.1244C68.9174 34.8587 69.6738 32.0536 68.4011 29.8576C67.1283 27.6616 64.3115 26.9116 62.1107 28.1773C59.91 29.443 59.1537 32.2482 60.4264 34.4441Z" fill="#F8C301" stroke="white" stroke-width="1.82385"/>
<path d="M39.6296 34.444C40.9023 32.248 40.1459 29.4429 37.9452 28.1772C35.7445 26.9115 32.9276 27.6615 31.6549 29.8575C30.3822 32.0534 31.1386 34.8586 33.3393 36.1243C35.54 37.39 38.3569 36.64 39.6296 34.444Z" fill="#F8C301" stroke="white" stroke-width="1.82385"/>
<path d="M50.028 61.5614C52.567 61.5614 54.6313 59.5101 54.6313 56.9723C54.6313 54.4345 52.567 52.3831 50.028 52.3831C47.489 52.3831 45.4247 54.4345 45.4247 56.9723C45.4247 59.5101 47.489 61.5614 50.028 61.5614Z" fill="#F8C301" stroke="white" stroke-width="1.82385"/>
<path d="M31.655 50.9916C32.9277 53.1876 35.7446 53.9376 37.9453 52.6719C40.146 51.4062 40.9024 48.6011 39.6297 46.4051C38.3569 44.2091 35.5401 43.4591 33.3394 44.7248C31.1386 45.9905 30.3823 48.7957 31.655 50.9916Z" fill="#F8C301" stroke="white" stroke-width="1.82385"/>
<path d="M68.4012 50.9917C69.6739 48.7957 68.9175 45.9906 66.7168 44.7248C64.5161 43.4591 61.6992 44.2092 60.4265 46.4052C59.1538 48.6011 59.9102 51.4063 62.1109 52.672C64.3116 53.9377 67.1285 53.1876 68.4012 50.9917Z" fill="#F8C301" stroke="white" stroke-width="1.82385"/>
<defs>
<filter id="filter0_d_20_379" x="0.748761" y="0.476748" width="98.4105" height="98.173" filterUnits="userSpaceOnUse" color-interpolation-filters="sRGB">
<feFlood flood-opacity="0" result="BackgroundImageFix"/>
<feColorMatrix in="SourceAlpha" type="matrix" values="0 0 0 0 0 0 0 0 0 0 0 0 0 0 0 0 0 0 127 0" result="hardAlpha"/>
<feOffset dy="9.11926"/>
<feGaussianBlur stdDeviation="9.11926"/>
<feColorMatrix type="matrix" values="0 0 0 0 0 0 0 0 0 0 0 0 0 0 0 0 0 0 0.04 0"/>
<feBlend mode="normal" in2="BackgroundImageFix" result="effect1_dropShadow_20_379"/>
<feBlend mode="normal" in="SourceGraphic" in2="effect1_dropShadow_20_379" result="shape"/>
</filter>
</defs>
</svg>
