<svg width="100" height="99" viewBox="0 0 100 99" fill="none" xmlns="http://www.w3.org/2000/svg">
<g filter="url(#filter0_d_18_192)">
<ellipse cx="49.9541" cy="40.4439" rx="30.9667" ry="30.848" fill="white"/>
</g>
<path d="M65.8619 52.55C65.8619 52.0603 65.4634 51.6633 64.9717 51.6633H58.7597C58.8918 48.4617 59.7052 45.2141 60.4944 42.0647C61.3827 38.52 62.3013 34.8547 62.3013 31.1498C62.3013 28.705 60.3046 26.716 57.8504 26.716H39.9285C37.4743 26.716 35.4776 28.705 35.4776 31.1498C35.4776 31.6395 35.8762 32.0365 36.3678 32.0365H42.5804C42.4482 35.238 41.6344 38.4857 40.8451 41.6351C39.9568 45.1798 39.0383 48.8451 39.0383 52.55C39.0383 54.9948 41.0349 56.9838 43.4891 56.9838H61.4111C63.8653 56.9838 65.8619 54.9948 65.8619 52.55ZM37.4105 30.263C37.7779 29.2308 38.7679 28.4895 39.9285 28.4895C41.089 28.4895 42.079 29.2308 42.4464 30.263H37.4105ZM40.8186 52.55C40.8186 49.0631 41.7102 45.5053 42.5724 42.0647C43.4607 38.52 44.3793 34.8547 44.3793 31.1498C44.3793 30.1524 44.0468 29.2311 43.4867 28.4895H57.8504C59.3229 28.4895 60.5209 29.6829 60.5209 31.1498C60.5209 34.6367 59.6293 38.1945 58.7671 41.6351C57.9497 44.8967 57.1074 48.2605 56.978 51.6633H47.0498C46.5582 51.6633 46.1596 52.0603 46.1596 52.55C46.1596 54.0169 44.9616 55.2103 43.4891 55.2103C42.0166 55.2103 40.8186 54.0169 40.8186 52.55ZM61.4111 55.2103H47.0464C47.4362 54.6944 47.7164 54.0919 47.8505 53.4368H63.9285C63.561 54.4689 62.5716 55.2103 61.4111 55.2103Z" fill="#60C1F8"/>
<path d="M47.0497 35.5836H57.5534C58.045 35.5836 58.4435 35.1865 58.4435 34.6968C58.4435 34.2071 58.045 33.8101 57.5534 33.8101H47.0497C46.5581 33.8101 46.1596 34.2071 46.1596 34.6968C46.1596 35.1865 46.5581 35.5836 47.0497 35.5836Z" fill="#22355D"/>
<path d="M46.2142 39.1304H56.8401C57.3317 39.1304 57.7303 38.7333 57.7303 38.2436C57.7303 37.7539 57.3317 37.3569 56.8401 37.3569H46.2142C45.7226 37.3569 45.3241 37.7539 45.3241 38.2436C45.3241 38.7333 45.7226 39.1304 46.2142 39.1304Z" fill="#22355D"/>
<path d="M45.38 42.6775H55.9595C56.4511 42.6775 56.8496 42.2805 56.8496 41.7907C56.8496 41.301 56.4511 40.904 55.9595 40.904H45.38C44.8884 40.904 44.4898 41.301 44.4898 41.7907C44.4898 42.2805 44.8884 42.6775 45.38 42.6775V42.6775Z" fill="#22355D"/>
<path d="M44.4993 46.2246H55.1252C55.6169 46.2246 56.0154 45.8275 56.0154 45.3378C56.0154 44.8481 55.6169 44.451 55.1252 44.451H44.4993C44.0077 44.451 43.6091 44.8481 43.6091 45.3378C43.6091 45.8275 44.0077 46.2246 44.4993 46.2246Z" fill="#22355D"/>
<path d="M71.1099 58.0032C73.6952 53.5425 72.1599 47.8413 67.6857 45.268C63.2114 42.6947 57.4874 44.2208 54.9021 48.6815C52.3167 53.1423 53.8521 58.8434 58.3263 61.4167C62.8006 63.99 68.5246 62.464 71.1099 58.0032Z" fill="#F8C301" stroke="white" stroke-width="1.82267"/>
<path d="M63.4321 48.5634C60.8749 48.5634 58.8085 50.6269 58.8085 53.1718H57.2664L59.2685 55.1662L59.3045 55.2405L61.3786 53.1718H59.8366C59.8366 51.1927 61.448 49.5875 63.4347 49.5875C65.4214 49.5875 67.0328 51.1927 67.0328 53.1718C67.0328 55.1509 65.4214 56.7561 63.4347 56.7561C62.4401 56.7561 61.5431 56.3516 60.8929 55.7039L60.1655 56.4284C61.0008 57.2631 62.1548 57.7802 63.4321 57.7802C65.9894 57.7802 68.0609 55.7167 68.0609 53.1718C68.0609 50.6269 65.9894 48.5634 63.4321 48.5634Z" fill="white"/>
<path d="M62.9208 51.1234V53.6836L65.1208 54.9842L65.4909 54.3621L63.6918 53.2995V51.1234H62.9208Z" fill="white"/>
<defs>
<filter id="filter0_d_18_192" x="0.760742" y="0.48262" width="98.3867" height="98.1493" filterUnits="userSpaceOnUse" color-interpolation-filters="sRGB">
<feFlood flood-opacity="0" result="BackgroundImageFix"/>
<feColorMatrix in="SourceAlpha" type="matrix" values="0 0 0 0 0 0 0 0 0 0 0 0 0 0 0 0 0 0 127 0" result="hardAlpha"/>
<feOffset dy="9.11333"/>
<feGaussianBlur stdDeviation="9.11333"/>
<feColorMatrix type="matrix" values="0 0 0 0 0 0 0 0 0 0 0 0 0 0 0 0 0 0 0.04 0"/>
<feBlend mode="normal" in2="BackgroundImageFix" result="effect1_dropShadow_18_192"/>
<feBlend mode="normal" in="SourceGraphic" in2="effect1_dropShadow_18_192" result="shape"/>
</filter>
</defs>
</svg>