<svg width="100" height="103" viewBox="0 0 100 103" fill="none" xmlns="http://www.w3.org/2000/svg">
<g filter="url(#filter0_d_131_38)">
<path d="M81.084 41.9998C81.084 59.6729 67.2729 73.9998 50.236 73.9998C33.1991 73.9998 19.388 59.6729 19.388 41.9998C19.388 24.3266 33.1991 9.99976 50.236 9.99976C67.2729 9.99976 81.084 24.3266 81.084 41.9998Z" fill="white"/>
</g>
<path d="M41.0104 43.3482L36.5653 42.3154C36.4395 42.286 36.3209 42.2313 36.2169 42.1546C36.1129 42.078 36.0255 41.981 35.9601 41.8695C35.8947 41.7581 35.8527 41.6345 35.8365 41.5063C35.8204 41.378 35.8304 41.2479 35.8661 41.1237L38.3171 32.8611C38.3775 32.6346 38.5188 32.4382 38.7144 32.3089L45.1854 28.984C45.3392 28.884 45.5184 28.8302 45.7018 28.8291H54.2465C54.4311 28.8303 54.6116 28.8841 54.7668 28.984L61.2339 32.3089C61.4305 32.437 61.5722 32.634 61.6312 32.8611L64.0821 41.1237C64.1179 41.2476 64.1281 41.3775 64.1122 41.5055C64.0963 41.6335 64.0546 41.7569 63.9896 41.8683C63.9246 41.9797 63.8377 42.0768 63.7341 42.1537C63.6305 42.2305 63.5124 42.2855 63.387 42.3154L58.9418 43.3482" stroke="#F8C301" stroke-width="1.5" stroke-miterlimit="10"/>
<path d="M53.6784 28.8529C53.6947 29.3501 53.6108 29.8455 53.4318 30.3096C53.2527 30.7737 52.9822 31.1971 52.6363 31.5545C52.2903 31.912 51.876 32.1962 51.418 32.3904C50.96 32.5845 50.4676 32.6845 49.9702 32.6845C49.4727 32.6845 48.9804 32.5845 48.5223 32.3904C48.0643 32.1962 47.65 31.912 47.3041 31.5545C46.9581 31.1971 46.6876 30.7737 46.5086 30.3096C46.3295 29.8455 46.2457 29.3501 46.2619 28.8529" stroke="#F8C301" stroke-width="1.5" stroke-miterlimit="10"/>
<path d="M38.7104 32.3208L41.0104 38.3867V52.3298C41.009 53.1413 41.3181 53.9225 41.8743 54.5134C42.4304 55.1043 43.1916 55.46 44.0016 55.5077V55.5077C45.9139 55.8579 47.8533 56.0387 49.7974 56.048H50.1469C52.0935 56.026 54.0343 55.8319 55.9467 55.468C56.7574 55.4213 57.5195 55.066 58.0766 54.475C58.6336 53.884 58.9432 53.1022 58.9418 52.2901V38.3867L61.2299 32.3407" stroke="#FFBF00" stroke-width="1.5" stroke-miterlimit="10" stroke-linecap="round"/>
<defs>
<filter id="filter0_d_131_38" x="0.48069" y="0.546093" width="99.5106" height="101.815" filterUnits="userSpaceOnUse" color-interpolation-filters="sRGB">
<feFlood flood-opacity="0" result="BackgroundImageFix"/>
<feColorMatrix in="SourceAlpha" type="matrix" values="0 0 0 0 0 0 0 0 0 0 0 0 0 0 0 0 0 0 127 0" result="hardAlpha"/>
<feOffset dy="9.45366"/>
<feGaussianBlur stdDeviation="9.45366"/>
<feColorMatrix type="matrix" values="0 0 0 0 0 0 0 0 0 0 0 0 0 0 0 0 0 0 0.04 0"/>
<feBlend mode="normal" in2="BackgroundImageFix" result="effect1_dropShadow_131_38"/>
<feBlend mode="normal" in="SourceGraphic" in2="effect1_dropShadow_131_38" result="shape"/>
</filter>
</defs>
</svg>
